<mxfile host="app.diagrams.net" agent="Mozilla/5.0 (Windows NT 10.0; Win64; x64) AppleWebKit/537.36 (KHTML, like Gecko) Chrome/138.0.0.0 Safari/537.36" version="26.2.14">
  <diagram name="Page-1" id="IMV2PYe9ivNLT3Lcb1eo">
    <mxGraphModel dx="1864" dy="1920" grid="1" gridSize="10" guides="1" tooltips="1" connect="1" arrows="1" fold="1" page="1" pageScale="1" pageWidth="850" pageHeight="1100" math="0" shadow="0">
      <root>
        <mxCell id="0" />
        <mxCell id="1" parent="0" />
        <mxCell id="nVAWZfpTIsb2HqCVXmdc-1" value="" style="whiteSpace=wrap;html=1;aspect=fixed;" vertex="1" parent="1">
          <mxGeometry x="180" y="-30" width="770" height="770" as="geometry" />
        </mxCell>
        <mxCell id="nVAWZfpTIsb2HqCVXmdc-32" style="edgeStyle=orthogonalEdgeStyle;rounded=0;orthogonalLoop=1;jettySize=auto;html=1;exitX=0;exitY=0.5;exitDx=0;exitDy=0;" edge="1" parent="1" source="nVAWZfpTIsb2HqCVXmdc-2" target="nVAWZfpTIsb2HqCVXmdc-21">
          <mxGeometry relative="1" as="geometry" />
        </mxCell>
        <mxCell id="nVAWZfpTIsb2HqCVXmdc-2" value="register" style="ellipse;whiteSpace=wrap;html=1;" vertex="1" parent="1">
          <mxGeometry x="240" y="60" width="120" height="80" as="geometry" />
        </mxCell>
        <mxCell id="nVAWZfpTIsb2HqCVXmdc-3" value="choose course" style="ellipse;whiteSpace=wrap;html=1;" vertex="1" parent="1">
          <mxGeometry x="220" y="170" width="120" height="80" as="geometry" />
        </mxCell>
        <mxCell id="nVAWZfpTIsb2HqCVXmdc-4" value="payment" style="ellipse;whiteSpace=wrap;html=1;" vertex="1" parent="1">
          <mxGeometry x="500" y="160" width="120" height="80" as="geometry" />
        </mxCell>
        <mxCell id="nVAWZfpTIsb2HqCVXmdc-5" value="" style="endArrow=block;dashed=1;endFill=0;endSize=12;html=1;rounded=0;" edge="1" parent="1" target="nVAWZfpTIsb2HqCVXmdc-4">
          <mxGeometry width="160" relative="1" as="geometry">
            <mxPoint x="340" y="210" as="sourcePoint" />
            <mxPoint x="500" y="210" as="targetPoint" />
          </mxGeometry>
        </mxCell>
        <mxCell id="nVAWZfpTIsb2HqCVXmdc-8" value="allocate in to a batch" style="ellipse;whiteSpace=wrap;html=1;" vertex="1" parent="1">
          <mxGeometry x="330" y="300" width="140" height="70" as="geometry" />
        </mxCell>
        <mxCell id="nVAWZfpTIsb2HqCVXmdc-9" value="" style="endArrow=block;dashed=1;endFill=0;endSize=12;html=1;rounded=0;" edge="1" parent="1" target="nVAWZfpTIsb2HqCVXmdc-8">
          <mxGeometry width="160" relative="1" as="geometry">
            <mxPoint x="270" y="250" as="sourcePoint" />
            <mxPoint x="430" y="250" as="targetPoint" />
          </mxGeometry>
        </mxCell>
        <mxCell id="nVAWZfpTIsb2HqCVXmdc-11" value="Attend contest" style="ellipse;whiteSpace=wrap;html=1;" vertex="1" parent="1">
          <mxGeometry x="220" y="390" width="140" height="70" as="geometry" />
        </mxCell>
        <mxCell id="nVAWZfpTIsb2HqCVXmdc-12" value="AI interview" style="ellipse;whiteSpace=wrap;html=1;" vertex="1" parent="1">
          <mxGeometry x="530" y="380" width="140" height="70" as="geometry" />
        </mxCell>
        <mxCell id="nVAWZfpTIsb2HqCVXmdc-13" value="Human Interview" style="ellipse;whiteSpace=wrap;html=1;" vertex="1" parent="1">
          <mxGeometry x="480" y="480" width="140" height="70" as="geometry" />
        </mxCell>
        <mxCell id="nVAWZfpTIsb2HqCVXmdc-14" value="Extends" style="endArrow=block;endSize=16;endFill=0;html=1;rounded=0;entryX=0.031;entryY=0.355;entryDx=0;entryDy=0;entryPerimeter=0;" edge="1" parent="1" target="nVAWZfpTIsb2HqCVXmdc-13">
          <mxGeometry width="160" relative="1" as="geometry">
            <mxPoint x="340" y="450" as="sourcePoint" />
            <mxPoint x="490" y="450" as="targetPoint" />
          </mxGeometry>
        </mxCell>
        <mxCell id="nVAWZfpTIsb2HqCVXmdc-15" value="Extends" style="endArrow=block;endSize=16;endFill=0;html=1;rounded=0;exitX=1;exitY=0.5;exitDx=0;exitDy=0;" edge="1" parent="1" source="nVAWZfpTIsb2HqCVXmdc-11" target="nVAWZfpTIsb2HqCVXmdc-12">
          <mxGeometry width="160" relative="1" as="geometry">
            <mxPoint x="360" y="410" as="sourcePoint" />
            <mxPoint x="520" y="410" as="targetPoint" />
          </mxGeometry>
        </mxCell>
        <mxCell id="nVAWZfpTIsb2HqCVXmdc-16" value="Attend class" style="ellipse;whiteSpace=wrap;html=1;" vertex="1" parent="1">
          <mxGeometry x="220" y="580" width="140" height="70" as="geometry" />
        </mxCell>
        <mxCell id="nVAWZfpTIsb2HqCVXmdc-17" value="Recorded" style="ellipse;whiteSpace=wrap;html=1;" vertex="1" parent="1">
          <mxGeometry x="440" y="660" width="140" height="70" as="geometry" />
        </mxCell>
        <mxCell id="nVAWZfpTIsb2HqCVXmdc-18" value="Live class" style="ellipse;whiteSpace=wrap;html=1;" vertex="1" parent="1">
          <mxGeometry x="460" y="570" width="140" height="70" as="geometry" />
        </mxCell>
        <mxCell id="nVAWZfpTIsb2HqCVXmdc-19" value="Extends" style="endArrow=block;endSize=16;endFill=0;html=1;rounded=0;entryX=0;entryY=0.5;entryDx=0;entryDy=0;" edge="1" parent="1" target="nVAWZfpTIsb2HqCVXmdc-18">
          <mxGeometry width="160" relative="1" as="geometry">
            <mxPoint x="360" y="620" as="sourcePoint" />
            <mxPoint x="520" y="620" as="targetPoint" />
          </mxGeometry>
        </mxCell>
        <mxCell id="nVAWZfpTIsb2HqCVXmdc-20" value="Extends" style="endArrow=block;endSize=16;endFill=0;html=1;rounded=0;exitX=0.906;exitY=0.805;exitDx=0;exitDy=0;exitPerimeter=0;" edge="1" parent="1" source="nVAWZfpTIsb2HqCVXmdc-16" target="nVAWZfpTIsb2HqCVXmdc-17">
          <mxGeometry width="160" relative="1" as="geometry">
            <mxPoint x="370" y="630" as="sourcePoint" />
            <mxPoint x="470" y="615" as="targetPoint" />
          </mxGeometry>
        </mxCell>
        <mxCell id="nVAWZfpTIsb2HqCVXmdc-21" value="Student&lt;div&gt;&lt;br&gt;&lt;/div&gt;" style="shape=umlActor;verticalLabelPosition=bottom;verticalAlign=top;html=1;" vertex="1" parent="1">
          <mxGeometry x="30" y="200" width="30" height="60" as="geometry" />
        </mxCell>
        <mxCell id="nVAWZfpTIsb2HqCVXmdc-26" value="Teacher" style="shape=umlActor;verticalLabelPosition=bottom;verticalAlign=top;html=1;" vertex="1" parent="1">
          <mxGeometry x="1070" y="170" width="30" height="60" as="geometry" />
        </mxCell>
        <mxCell id="nVAWZfpTIsb2HqCVXmdc-33" style="edgeStyle=orthogonalEdgeStyle;rounded=0;orthogonalLoop=1;jettySize=auto;html=1;entryX=0.75;entryY=0.1;entryDx=0;entryDy=0;entryPerimeter=0;" edge="1" parent="1" source="nVAWZfpTIsb2HqCVXmdc-3" target="nVAWZfpTIsb2HqCVXmdc-21">
          <mxGeometry relative="1" as="geometry" />
        </mxCell>
        <mxCell id="nVAWZfpTIsb2HqCVXmdc-34" style="edgeStyle=orthogonalEdgeStyle;rounded=0;orthogonalLoop=1;jettySize=auto;html=1;" edge="1" parent="1" source="nVAWZfpTIsb2HqCVXmdc-11" target="nVAWZfpTIsb2HqCVXmdc-21">
          <mxGeometry relative="1" as="geometry" />
        </mxCell>
        <mxCell id="nVAWZfpTIsb2HqCVXmdc-35" style="edgeStyle=orthogonalEdgeStyle;rounded=0;orthogonalLoop=1;jettySize=auto;html=1;entryX=0.212;entryY=0.784;entryDx=0;entryDy=0;entryPerimeter=0;" edge="1" parent="1" source="nVAWZfpTIsb2HqCVXmdc-16" target="nVAWZfpTIsb2HqCVXmdc-21">
          <mxGeometry relative="1" as="geometry" />
        </mxCell>
        <mxCell id="nVAWZfpTIsb2HqCVXmdc-36" value="Conduct class" style="ellipse;whiteSpace=wrap;html=1;" vertex="1" parent="1">
          <mxGeometry x="730" y="100" width="140" height="70" as="geometry" />
        </mxCell>
        <mxCell id="nVAWZfpTIsb2HqCVXmdc-37" value="Arrange Test" style="ellipse;whiteSpace=wrap;html=1;" vertex="1" parent="1">
          <mxGeometry x="790" y="240" width="140" height="70" as="geometry" />
        </mxCell>
        <mxCell id="nVAWZfpTIsb2HqCVXmdc-38" value="MCQ question" style="ellipse;whiteSpace=wrap;html=1;" vertex="1" parent="1">
          <mxGeometry x="570" y="260" width="140" height="70" as="geometry" />
        </mxCell>
        <mxCell id="nVAWZfpTIsb2HqCVXmdc-39" value="Coding problems" style="ellipse;whiteSpace=wrap;html=1;" vertex="1" parent="1">
          <mxGeometry x="710" y="390" width="140" height="70" as="geometry" />
        </mxCell>
        <mxCell id="nVAWZfpTIsb2HqCVXmdc-40" value="Extends" style="endArrow=block;endSize=16;endFill=0;html=1;rounded=0;entryX=0.033;entryY=0.664;entryDx=0;entryDy=0;entryPerimeter=0;" edge="1" parent="1" target="nVAWZfpTIsb2HqCVXmdc-37">
          <mxGeometry width="160" relative="1" as="geometry">
            <mxPoint x="710" y="286" as="sourcePoint" />
            <mxPoint x="860" y="290" as="targetPoint" />
          </mxGeometry>
        </mxCell>
        <mxCell id="nVAWZfpTIsb2HqCVXmdc-41" value="Extends" style="endArrow=block;endSize=16;endFill=0;html=1;rounded=0;entryX=0.181;entryY=0.851;entryDx=0;entryDy=0;entryPerimeter=0;" edge="1" parent="1" source="nVAWZfpTIsb2HqCVXmdc-39" target="nVAWZfpTIsb2HqCVXmdc-37">
          <mxGeometry width="160" relative="1" as="geometry">
            <mxPoint x="710" y="300" as="sourcePoint" />
            <mxPoint x="795" y="306" as="targetPoint" />
          </mxGeometry>
        </mxCell>
        <mxCell id="nVAWZfpTIsb2HqCVXmdc-42" style="edgeStyle=orthogonalEdgeStyle;rounded=0;orthogonalLoop=1;jettySize=auto;html=1;exitX=1;exitY=0.5;exitDx=0;exitDy=0;entryX=0.5;entryY=0;entryDx=0;entryDy=0;entryPerimeter=0;" edge="1" parent="1" source="nVAWZfpTIsb2HqCVXmdc-36" target="nVAWZfpTIsb2HqCVXmdc-26">
          <mxGeometry relative="1" as="geometry" />
        </mxCell>
        <mxCell id="nVAWZfpTIsb2HqCVXmdc-43" style="edgeStyle=orthogonalEdgeStyle;rounded=0;orthogonalLoop=1;jettySize=auto;html=1;entryX=0.456;entryY=0.722;entryDx=0;entryDy=0;entryPerimeter=0;" edge="1" parent="1" source="nVAWZfpTIsb2HqCVXmdc-37" target="nVAWZfpTIsb2HqCVXmdc-26">
          <mxGeometry relative="1" as="geometry" />
        </mxCell>
      </root>
    </mxGraphModel>
  </diagram>
</mxfile>
